<svg width="1920" height="1080" viewBox="0 0 1920 1080" fill="none" xmlns="http://www.w3.org/2000/svg">
<g clip-path="url(#clip0_11_2)">
<rect width="1920" height="1080" fill="white"/>
<path d="M673.879 81.4041L628.5 29.5233C616.239 15.5067 601.452 3.9209 584.91 -4.62989C509.661 -43.5251 417.172 -11.7027 381.786 65.2586L373.274 83.7717C360.308 111.973 357.18 143.71 364.393 173.899C367.725 187.845 373.2 201.189 380.623 213.456L391.219 230.966C398.918 243.69 407.657 255.756 417.345 267.039L457.572 313.891L391.72 323.767L391.18 323.791C358.142 325.249 326.613 338.036 301.891 360.002L293.928 366.98C276.02 382.675 262.442 402.705 254.493 425.152C250.507 436.409 247.987 448.134 246.996 460.035L245.863 473.638C245.058 483.302 244.954 493.011 245.552 502.689L245.645 504.205C247.491 534.103 256.221 563.169 271.153 589.136L273.894 593.904C280.368 605.162 288.26 615.542 297.377 624.79C316.632 644.322 340.821 658.27 367.372 665.15L378.728 668.093C400.536 673.744 423.161 675.557 445.59 673.453L483.289 669.915C503.413 668.027 523.37 664.653 542.997 659.823L569.623 653.269C605.538 644.43 640.779 633.049 675.08 619.213L686.019 614.8C737.92 593.865 787.862 568.367 835.257 538.606L882.372 509.022C824.53 493.613 781.101 445.715 771.412 386.645L764.037 341.685C760.862 292.204 749.79 243.549 731.242 197.565L730.299 195.228L729.801 193.764C716.259 153.983 697.451 116.194 673.879 81.4041Z" stroke="#DA1212" stroke-width="150"/>
<path d="M673.879 81.4041L628.5 29.5233C616.239 15.5067 601.452 3.9209 584.91 -4.62989C509.661 -43.5251 417.172 -11.7027 381.786 65.2586L373.274 83.7717C360.308 111.973 357.18 143.71 364.393 173.899C367.725 187.845 373.2 201.189 380.623 213.456L391.219 230.966C398.918 243.69 407.657 255.756 417.345 267.039L457.572 313.891L391.72 323.767L391.18 323.791C358.142 325.249 326.613 338.036 301.891 360.002L293.928 366.98C276.02 382.675 262.442 402.705 254.493 425.152C250.507 436.409 247.987 448.134 246.996 460.035L245.863 473.638C245.058 483.302 244.954 493.011 245.552 502.689L245.645 504.205C247.491 534.103 256.221 563.169 271.153 589.136L273.894 593.904C280.368 605.162 288.26 615.542 297.377 624.79C316.632 644.322 340.821 658.27 367.372 665.15L378.728 668.093C400.536 673.744 423.161 675.557 445.59 673.453L483.289 669.915C503.413 668.027 523.37 664.653 542.997 659.823L569.623 653.269C605.538 644.43 640.779 633.049 675.08 619.213L686.019 614.8C737.92 593.865 787.862 568.367 835.257 538.606L882.372 509.022C824.53 493.613 781.101 445.715 771.412 386.645L764.037 341.685C760.862 292.204 749.79 243.549 731.242 197.565L730.299 195.228L729.801 193.764C716.259 153.983 697.451 116.194 673.879 81.4041Z" stroke="#DA1212" stroke-width="150"/>
<path d="M643.404 914.6L591.523 959.979C577.507 972.24 565.921 987.027 557.37 1003.57C518.475 1078.82 550.297 1171.31 627.259 1206.69L645.772 1215.2C673.973 1228.17 705.71 1231.3 735.899 1224.09C749.845 1220.75 763.189 1215.28 775.456 1207.86L792.966 1197.26C805.69 1189.56 817.756 1180.82 829.039 1171.13L875.891 1130.91L885.767 1196.76L885.791 1197.3C887.249 1230.34 900.036 1261.87 922.002 1286.59L928.98 1294.55C944.675 1312.46 964.705 1326.04 987.152 1333.99C998.409 1337.97 1010.13 1340.49 1022.03 1341.48L1035.64 1342.62C1045.3 1343.42 1055.01 1343.52 1064.69 1342.93L1066.21 1342.83C1096.1 1340.99 1125.17 1332.26 1151.14 1317.33L1155.9 1314.58C1167.16 1308.11 1177.54 1300.22 1186.79 1291.1C1206.32 1271.85 1220.27 1247.66 1227.15 1221.11L1230.09 1209.75C1235.74 1187.94 1237.56 1165.32 1235.45 1142.89L1231.92 1105.19C1230.03 1085.07 1226.65 1065.11 1221.82 1045.48L1215.27 1018.86C1206.43 982.941 1195.05 947.7 1181.21 913.399L1176.8 902.46C1155.86 850.559 1130.37 800.617 1100.61 753.222L1071.02 706.107C1055.61 763.949 1007.72 807.378 948.645 817.067L903.685 824.442C854.204 827.617 805.549 838.689 759.565 857.237L757.228 858.18L755.764 858.678C715.983 872.22 678.194 891.028 643.404 914.6Z" stroke="#DA1212" stroke-width="150"/>
<path d="M643.404 914.6L591.523 959.979C577.507 972.24 565.921 987.027 557.37 1003.57C518.475 1078.82 550.297 1171.31 627.259 1206.69L645.772 1215.2C673.973 1228.17 705.71 1231.3 735.899 1224.09C749.845 1220.75 763.189 1215.28 775.456 1207.86L792.966 1197.26C805.69 1189.56 817.756 1180.82 829.039 1171.13L875.891 1130.91L885.767 1196.76L885.791 1197.3C887.249 1230.34 900.036 1261.87 922.002 1286.59L928.98 1294.55C944.675 1312.46 964.705 1326.04 987.152 1333.99C998.409 1337.97 1010.13 1340.49 1022.03 1341.48L1035.64 1342.62C1045.3 1343.42 1055.01 1343.52 1064.69 1342.93L1066.21 1342.83C1096.1 1340.99 1125.17 1332.26 1151.14 1317.33L1155.9 1314.58C1167.16 1308.11 1177.54 1300.22 1186.79 1291.1C1206.32 1271.85 1220.27 1247.66 1227.15 1221.11L1230.09 1209.75C1235.74 1187.94 1237.56 1165.32 1235.45 1142.89L1231.92 1105.19C1230.03 1085.07 1226.65 1065.11 1221.82 1045.48L1215.27 1018.86C1206.43 982.941 1195.05 947.7 1181.21 913.399L1176.8 902.46C1155.86 850.559 1130.37 800.617 1100.61 753.222L1071.02 706.107C1055.61 763.949 1007.72 807.378 948.645 817.067L903.685 824.442C854.204 827.617 805.549 838.689 759.565 857.237L757.228 858.18L755.764 858.678C715.983 872.22 678.194 891.028 643.404 914.6Z" stroke="#DA1212" stroke-width="150"/>
<path d="M1476.6 945.075L1521.98 996.956C1534.24 1010.97 1549.03 1022.56 1565.57 1031.11C1640.82 1070 1733.31 1038.18 1768.69 961.22L1777.2 942.707C1790.17 914.506 1793.3 882.769 1786.09 852.58C1782.75 838.634 1777.28 825.29 1769.86 813.023L1759.26 795.513C1751.56 782.789 1742.82 770.723 1733.13 759.44L1692.91 712.588L1758.76 702.712L1759.3 702.688C1792.34 701.229 1823.87 688.443 1848.59 666.477L1856.55 659.499C1874.46 643.804 1888.04 623.774 1895.99 601.327C1899.97 590.07 1902.49 578.345 1903.48 566.444L1904.62 552.841C1905.42 543.177 1905.52 533.468 1904.93 523.79L1904.83 522.274C1902.99 492.376 1894.26 463.31 1879.33 437.343L1876.58 432.575C1870.11 421.317 1862.22 410.937 1853.1 401.689C1833.85 382.157 1809.66 368.209 1783.11 361.329L1771.75 358.386C1749.94 352.735 1727.32 350.921 1704.89 353.026L1667.19 356.564C1647.07 358.452 1627.11 361.825 1607.48 366.656L1580.86 373.21C1544.94 382.049 1509.7 393.43 1475.4 407.266L1464.46 411.679C1412.56 432.614 1362.62 458.112 1315.22 487.872L1268.11 517.457C1325.95 532.866 1369.38 580.764 1379.07 639.834L1386.44 684.794C1389.62 734.275 1400.69 782.93 1419.24 828.914L1420.18 831.251L1420.68 832.715C1434.22 872.496 1453.03 910.285 1476.6 945.075Z" stroke="#DA1212" stroke-width="150"/>
<path d="M1476.6 945.075L1521.98 996.956C1534.24 1010.97 1549.03 1022.56 1565.57 1031.11C1640.82 1070 1733.31 1038.18 1768.69 961.22L1777.2 942.707C1790.17 914.506 1793.3 882.769 1786.09 852.58C1782.75 838.634 1777.28 825.29 1769.86 813.023L1759.26 795.513C1751.56 782.789 1742.82 770.723 1733.13 759.44L1692.91 712.588L1758.76 702.712L1759.3 702.688C1792.34 701.229 1823.87 688.443 1848.59 666.477L1856.55 659.499C1874.46 643.804 1888.04 623.774 1895.99 601.327C1899.97 590.07 1902.49 578.345 1903.48 566.444L1904.62 552.841C1905.42 543.177 1905.52 533.468 1904.93 523.79L1904.83 522.274C1902.99 492.376 1894.26 463.31 1879.33 437.343L1876.58 432.575C1870.11 421.317 1862.22 410.937 1853.1 401.689C1833.85 382.157 1809.66 368.209 1783.11 361.329L1771.75 358.386C1749.94 352.735 1727.32 350.921 1704.89 353.026L1667.19 356.564C1647.07 358.452 1627.11 361.825 1607.48 366.656L1580.86 373.21C1544.94 382.049 1509.7 393.43 1475.4 407.266L1464.46 411.679C1412.56 432.614 1362.62 458.112 1315.22 487.872L1268.11 517.457C1325.95 532.866 1369.38 580.764 1379.07 639.834L1386.44 684.794C1389.62 734.275 1400.69 782.93 1419.24 828.914L1420.18 831.251L1420.68 832.715C1434.22 872.496 1453.03 910.285 1476.6 945.075Z" stroke="#DA1212" stroke-width="150"/>
<path d="M1507.08 111.879L1558.96 66.4994C1572.97 54.2392 1584.56 39.4522 1593.11 22.9095C1632 -52.3392 1600.18 -144.828 1523.22 -180.214L1504.71 -188.726C1476.51 -201.692 1444.77 -204.82 1414.58 -197.607C1400.63 -194.275 1387.29 -188.8 1375.02 -181.377L1357.51 -170.781C1344.79 -163.082 1332.72 -154.343 1321.44 -144.655L1274.59 -104.428L1264.71 -170.28L1264.69 -170.82C1263.23 -203.858 1250.44 -235.387 1228.48 -260.109L1221.5 -268.072C1205.8 -285.98 1185.77 -299.558 1163.33 -307.507C1152.07 -311.493 1140.35 -314.013 1128.44 -315.004L1114.84 -316.137C1105.18 -316.942 1095.47 -317.046 1085.79 -316.449L1084.27 -316.355C1054.38 -314.509 1025.31 -305.779 999.343 -290.847L994.575 -288.106C983.317 -281.632 972.937 -273.74 963.69 -264.623C944.157 -245.368 930.209 -221.179 923.329 -194.628L920.386 -183.272C914.735 -161.464 912.922 -138.839 915.026 -116.41L918.564 -78.7115C920.452 -58.5873 923.826 -38.6302 928.656 -19.0034L935.21 7.62275C944.049 43.5377 955.43 78.7789 969.267 113.08L973.679 124.019C994.614 175.92 1020.11 225.862 1049.87 273.257L1079.46 320.372C1094.87 262.53 1142.76 219.101 1201.83 209.412L1246.79 202.037C1296.28 198.862 1344.93 187.79 1390.91 169.242L1393.25 168.299L1394.71 167.801C1434.5 154.259 1472.29 135.451 1507.08 111.879Z" stroke="#DA1212" stroke-width="150"/>
<path d="M1507.08 111.879L1558.96 66.4994C1572.97 54.2392 1584.56 39.4522 1593.11 22.9095C1632 -52.3392 1600.18 -144.828 1523.22 -180.214L1504.71 -188.726C1476.51 -201.692 1444.77 -204.82 1414.58 -197.607C1400.63 -194.275 1387.29 -188.8 1375.02 -181.377L1357.51 -170.781C1344.79 -163.082 1332.72 -154.343 1321.44 -144.655L1274.59 -104.428L1264.71 -170.28L1264.69 -170.82C1263.23 -203.858 1250.44 -235.387 1228.48 -260.109L1221.5 -268.072C1205.8 -285.98 1185.77 -299.558 1163.33 -307.507C1152.07 -311.493 1140.35 -314.013 1128.44 -315.004L1114.84 -316.137C1105.18 -316.942 1095.47 -317.046 1085.79 -316.449L1084.27 -316.355C1054.38 -314.509 1025.31 -305.779 999.343 -290.847L994.575 -288.106C983.317 -281.632 972.937 -273.74 963.69 -264.623C944.157 -245.368 930.209 -221.179 923.329 -194.628L920.386 -183.272C914.735 -161.464 912.922 -138.839 915.026 -116.41L918.564 -78.7115C920.452 -58.5873 923.826 -38.6302 928.656 -19.0034L935.21 7.62275C944.049 43.5377 955.43 78.7789 969.267 113.08L973.679 124.019C994.614 175.92 1020.11 225.862 1049.87 273.257L1079.46 320.372C1094.87 262.53 1142.76 219.101 1201.83 209.412L1246.79 202.037C1296.28 198.862 1344.93 187.79 1390.91 169.242L1393.25 168.299L1394.71 167.801C1434.5 154.259 1472.29 135.451 1507.08 111.879Z" stroke="#DA1212" stroke-width="150"/>
</g>
<defs>
<clipPath id="clip0_11_2">
<rect width="1920" height="1080" fill="white"/>
</clipPath>
</defs>
</svg>
